<svg aria-hidden="true" style="position:absolute;width:0;height:0;overflow:hidden" xmlns="http://www.w3.org/2000/svg">
  <defs>
    <symbol id="icon-Logo" viewBox="0 0 153 32">
      <path style="fill:var(--color1, #4d5ae5)" d="M7.608 7.675h3.072l1.944 5.64 1.968-5.64h3.048l-2.928 7.752 2.16 5.424 4.824-13.224h3.6l-6.816 17.04h-2.856l-3-7.152-2.976 7.152H6.792L0 7.627h3.552L8.4 20.851l2.112-5.424-2.904-7.752zm31.986 14.088v2.904H27.762V7.627h11.616v2.904h-8.304v4.104h7.176v2.688h-7.176v4.44h8.52zm17.03-1.488c0 .96-.248 1.768-.744 2.424-.496.64-1.168 1.128-2.016 1.464-.832.336-1.744.504-2.736.504h-8.232V7.627h9.12c.8 0 1.488.216 2.064.648.592.416 1.04.96 1.344 1.632a4.662 4.662 0 0 1-.144 4.392 3.784 3.784 0 0 1-1.824 1.632c.976.288 1.744.808 2.304 1.56.576.752.864 1.68.864 2.784zm-3.336-.624c0-.432-.088-.816-.264-1.152a1.993 1.993 0 0 0-.72-.816 1.676 1.676 0 0 0-1.008-.312h-5.088v4.488h4.92c.4 0 .76-.096 1.08-.288.336-.208.6-.48.792-.816s.288-.704.288-1.104zm-7.08-9.192v4.296h4.416c.368 0 .704-.088 1.008-.264s.544-.424.72-.744c.192-.32.288-.704.288-1.152 0-.432-.088-.808-.264-1.128a1.785 1.785 0 0 0-.672-.744 1.685 1.685 0 0 0-.936-.264h-4.56z"/>
      <path style="fill:var(--color2, #2e2f42)" d="M70.595 12.091c-.112-.112-.32-.264-.624-.456a6.127 6.127 0 0 0-1.08-.552 9.789 9.789 0 0 0-1.368-.456c-.496-.144-1-.216-1.512-.216-.896 0-1.576.168-2.04.504-.448.336-.672.808-.672 1.416 0 .464.144.832.432 1.104s.72.504 1.296.696c.576.192 1.296.4 2.16.624 1.12.272 2.088.608 2.904 1.008.832.384 1.464.896 1.896 1.536.448.624.672 1.456.672 2.496 0 .912-.168 1.696-.504 2.352-.336.64-.8 1.16-1.392 1.56s-1.264.696-2.016.888c-.752.176-1.552.264-2.4.264s-1.696-.088-2.544-.264a13.982 13.982 0 0 1-2.448-.744 11.723 11.723 0 0 1-2.16-1.2l1.464-2.856c.144.144.4.336.768.576.368.224.816.456 1.344.696.528.224 1.104.416 1.728.576s1.256.24 1.896.24c.896 0 1.576-.152 2.04-.456s.696-.736.696-1.296c0-.512-.184-.912-.552-1.2s-.88-.536-1.536-.744a48.807 48.807 0 0 0-2.328-.72c-1.072-.304-1.968-.64-2.688-1.008-.72-.384-1.256-.864-1.608-1.44s-.528-1.296-.528-2.16c0-1.168.272-2.144.816-2.928.56-.8 1.312-1.4 2.256-1.8.944-.416 1.992-.624 3.144-.624.8 0 1.552.088 2.256.264.72.176 1.392.408 2.016.696s1.184.6 1.68.936l-1.464 2.688zm18.03-1.56h-5.448v14.136h-3.288V10.531h-5.448V7.627h14.184v2.904zm10.06 14.256c-1.36 0-2.52-.224-3.48-.672a6.232 6.232 0 0 1-2.304-1.896c-.576-.8-1-1.704-1.272-2.712a12.381 12.381 0 0 1-.408-3.192V7.627h3.312v8.688c0 .704.064 1.392.192 2.064.144.656.376 1.248.696 1.776s.744.944 1.272 1.248c.528.304 1.184.456 1.968.456.8 0 1.464-.152 1.992-.456.544-.32.968-.744 1.272-1.272.32-.528.552-1.12.696-1.776a9.709 9.709 0 0 0 .216-2.04V7.627h3.288v8.688c0 1.168-.144 2.264-.432 3.288a7.522 7.522 0 0 1-1.32 2.712c-.592.768-1.36 1.376-2.304 1.824-.944.432-2.072.648-3.384.648zm11.496-.12V7.627h6.192c1.856 0 3.408.384 4.656 1.152a7.132 7.132 0 0 1 2.808 3.072c.624 1.28.936 2.704.936 4.272 0 1.728-.344 3.232-1.032 4.512s-1.664 2.272-2.928 2.976c-1.248.704-2.728 1.056-4.44 1.056h-6.192zm11.256-8.544c0-1.104-.2-2.072-.6-2.904-.4-.848-.976-1.504-1.728-1.968-.752-.48-1.664-.72-2.736-.72h-2.88v11.232h2.88c1.088 0 2.008-.24 2.76-.72a4.665 4.665 0 0 0 1.704-2.016c.4-.864.6-1.832.6-2.904zm6.644 8.544V7.627h3.312v17.04h-3.312zm14.859.12c-1.248 0-2.384-.24-3.408-.72a8.279 8.279 0 0 1-2.616-1.944 9.514 9.514 0 0 1-1.68-2.784c-.4-1.04-.6-2.104-.6-3.192 0-1.136.208-2.216.624-3.24a9.318 9.318 0 0 1 1.752-2.76 8.242 8.242 0 0 1 2.64-1.92c1.024-.48 2.144-.72 3.36-.72 1.232 0 2.352.248 3.36.744 1.024.496 1.896 1.16 2.616 1.992s1.28 1.76 1.68 2.784c.4 1.024.6 2.08.6 3.168 0 1.12-.208 2.2-.624 3.24a9.09 9.09 0 0 1-1.752 2.76 8.069 8.069 0 0 1-2.64 1.896c-1.008.464-2.112.696-3.312.696zm-4.944-8.64c0 .736.112 1.448.336 2.136s.544 1.304.96 1.848c.432.528.952.952 1.56 1.272.624.304 1.328.456 2.112.456.8 0 1.512-.16 2.136-.48a4.803 4.803 0 0 0 1.56-1.32c.416-.56.728-1.176.936-1.848a6.633 6.633 0 0 0 .336-2.064c0-.736-.12-1.44-.36-2.112a5.575 5.575 0 0 0-.984-1.824 4.314 4.314 0 0 0-1.56-1.272c-.608-.32-1.296-.48-2.064-.48-.816 0-1.536.168-2.16.504-.608.32-1.12.752-1.536 1.296s-.736 1.152-.96 1.824a6.941 6.941 0 0 0-.312 2.064z"/>
    </symbol>
  </defs>
</svg>
